<svg xmlns="http://www.w3.org/2000/svg" viewBox="0 0 1200 520">
<defs><linearGradient id="g" x1="0" x2="1"><stop stop-color="#eefcff"/><stop offset="1" stop-color="#76eaff"/></linearGradient><filter id="glow"><feGaussianBlur stdDeviation="6" result="b"/><feMerge><feMergeNode in="b"/><feMergeNode in="SourceGraphic"/></feMerge></filter></defs>
<path d="M70 270C220 70 570 20 850 145c118 52 205 123 300 235-170-35-286 35-402 112-190 127-475 93-650-45-60-47-74-91-28-177z" fill="url(#g)" opacity=".55" filter="url(#glow)"/>
<path d="M315 197c-95 7-162 40-240 111 145 50 273 30 382-63-38-38-82-54-142-48z" fill="#020817"/>
<path d="M635 154c83-88 184-114 311-100-113 62-178 139-218 264-26-67-55-116-93-164z" fill="#020817"/>
<circle cx="250" cy="252" r="22" fill="#020817"/>
</svg>