<svg xmlns="http://www.w3.org/2000/svg" viewBox="0 0 420 220">
<defs>
<linearGradient id="b" x1="0" x2="1"><stop stop-color="#f5fdff"/><stop offset="1" stop-color="#7ce9ff"/></linearGradient>
<filter id="glow"><feGaussianBlur stdDeviation="5" result="b"/><feMerge><feMergeNode in="b"/><feMergeNode in="SourceGraphic"/></feMerge></filter>
</defs>
<path d="M24 112C86 37 206 10 306 56c34 16 58 38 86 69-51-11-88 10-124 35-60 42-151 33-221-16-22-15-30-25-23-32z" fill="url(#b)" filter="url(#glow)" opacity=".95"/>
<path d="M132 78c-31 7-52 22-74 45 46 14 91 3 123-27-13-13-27-20-49-18z" fill="#03101f"/>
<path d="M238 72c25-26 57-36 96-33-34 20-54 42-66 80-8-20-18-34-30-47z" fill="#03101f"/>
<circle cx="112" cy="99" r="10" fill="#03101f"/>
</svg>